<svg xmlns="http://www.w3.org/2000/svg" viewBox="0 0 175.85 175.85"><defs><style>.cls-1,.cls-2{fill:none;}.cls-2{stroke:#231f20;stroke-linecap:round;stroke-linejoin:round;stroke-width:1.83px;}.cls-3{fill:#231f20;fill-rule:evenodd;}</style></defs><title>2Asset 3</title><g id="Layer_2" data-name="Layer 2"><g id="Layer_1-2" data-name="Layer 1"><circle class="cls-1" cx="87.93" cy="87.93" r="87.93"/><path class="cls-2" d="M86.82,40.09h0a26.44,26.44,0,0,1,26.36,26.37V78.6a26.37,26.37,0,1,1-52.73,0V66.46A26.45,26.45,0,0,1,86.82,40.09Z"/><path class="cls-2" d="M96.74,103v4.7a10,10,0,0,1-9.92,9.92h0a10,10,0,0,1-9.92-9.92V103a26.18,26.18,0,0,0,9.92,2h0A26.26,26.26,0,0,0,96.74,103Z"/><path class="cls-2" d="M86.82,144H47.55c0-23.54,9.54-34.34,29.47-34.7a10,10,0,0,0,9.8,8.37h0a10,10,0,0,0,9.8-8.37c19.92.36,29.46,11.16,29.46,34.7"/><path class="cls-2" d="M69.76,110a44.22,44.22,0,0,1,7.26-.68,10,10,0,0,0,9.8,8.37l-9,9.71C70.81,121.43,69.77,110,69.76,110Z"/><path class="cls-3" d="M74.59,68.11a1.43,1.43,0,1,1-1.43,1.43A1.43,1.43,0,0,1,74.59,68.11Z"/><path class="cls-2" d="M74.59,68.11a1.43,1.43,0,1,1-1.43,1.43A1.43,1.43,0,0,1,74.59,68.11Z"/><path class="cls-3" d="M99,68.11a1.43,1.43,0,1,1-1.42,1.43A1.43,1.43,0,0,1,99,68.11Z"/><path class="cls-2" d="M99,68.11a1.43,1.43,0,1,1-1.42,1.43A1.43,1.43,0,0,1,99,68.11Z"/><path class="cls-2" d="M97,90.32a16.45,16.45,0,0,1-10.21,3.61h0A16.46,16.46,0,0,1,76.6,90.32"/><line class="cls-2" x1="86.82" y1="72.32" x2="86.82" y2="77.46"/><path class="cls-2" d="M86.82,84.05a3.3,3.3,0,0,0,0-6.59"/><path class="cls-2" d="M60.5,64.9c0,.52,0,1,0,1.56V78.6a25.78,25.78,0,0,0,.3,4c-5.71.19-8.61-3.9-8.61-11.32C52.14,66.43,56.18,64.86,60.5,64.9Z"/><path class="cls-2" d="M60.45,68.88c-5.57-.4-4.44,5.38-3.61,7.49"/><path class="cls-2" d="M113.14,64.9c0,.52,0,1,0,1.56V78.6a25.78,25.78,0,0,1-.3,4c5.71.19,8.61-3.9,8.61-11.32C121.5,66.43,117.46,64.86,113.14,64.9Z"/><path class="cls-2" d="M113.19,68.88c5.57-.4,4.44,5.38,3.61,7.49"/><path class="cls-3" d="M69.11,53.8c-3.31-1.34-8.66,12.75-8.66,20.79h-.7c-2-10.27-.6-23.73,1.61-28.5.86-21.23,46.29-6.2,57.74-13.31.54,4.29-1,12.14-4.1,14.77,1.08,5.32,1.24,14.55-1.14,27h-.68c-.46-8.12-4.4-22.13-7.71-20.79C96.5,57.43,78.07,57.43,69.11,53.8Z"/><path class="cls-2" d="M69.11,53.8c-3.31-1.34-8.66,12.75-8.66,20.79h-.7c-2-10.27-.6-23.73,1.61-28.5.86-21.23,46.29-6.2,57.74-13.31.54,4.29-1,12.14-4.1,14.77,1.08,5.32,1.24,14.55-1.14,27h-.68c-.46-8.12-4.4-22.13-7.71-20.79C96.5,57.43,78.07,57.43,69.11,53.8Z"/><path class="cls-2" d="M103.87,110a44.1,44.1,0,0,0-7.25-.68,10,10,0,0,1-9.8,8.37h0l9,9.71C102.82,121.43,103.86,110,103.87,110Z"/><line class="cls-2" x1="86.82" y1="143.97" x2="86.82" y2="117.64"/><path class="cls-3" d="M83.17,127.39a.7.7,0,1,1,0,1.4.7.7,0,1,1,0-1.4Z"/><path class="cls-2" d="M83.17,127.39a.7.7,0,1,1,0,1.4.7.7,0,1,1,0-1.4Z"/><path class="cls-3" d="M83.17,136.61a.71.71,0,0,1,.71.71.7.7,0,0,1-.71.7.7.7,0,0,1-.7-.7A.7.7,0,0,1,83.17,136.61Z"/><path class="cls-2" d="M83.17,136.61a.71.71,0,0,1,.71.71.7.7,0,0,1-.71.7.7.7,0,0,1-.7-.7A.7.7,0,0,1,83.17,136.61Z"/><rect class="cls-2" x="97.73" y="140.69" width="14.54" height="3.28"/><path class="cls-2" d="M103.07,64.1a6.41,6.41,0,0,0-8,0"/><path class="cls-2" d="M78.61,64.1a6.4,6.4,0,0,0-8,0"/></g></g></svg>