<svg xmlns="http://www.w3.org/2000/svg" viewBox="0 0 175.85 175.85"><defs><style>.cls-1,.cls-2{fill:none;}.cls-2{stroke:#231f20;stroke-linecap:round;stroke-linejoin:round;stroke-width:1.83px;}.cls-3{fill:#231f20;fill-rule:evenodd;}</style></defs><title>2Asset 10</title><g id="Layer_2" data-name="Layer 2"><g id="Layer_1-2" data-name="Layer 1"><circle class="cls-1" cx="87.93" cy="87.93" r="87.93"/><path class="cls-2" d="M81,44H91.69a21,21,0,0,1,21,21V85.21A23.69,23.69,0,0,1,89,108.84H83.56A23.69,23.69,0,0,1,59.93,85.21V65A21.11,21.11,0,0,1,81,44Z"/><path class="cls-3" d="M74.07,72a1.43,1.43,0,1,1-1.43,1.43A1.43,1.43,0,0,1,74.07,72Z"/><path class="cls-2" d="M74.07,72a1.43,1.43,0,1,1-1.43,1.43A1.43,1.43,0,0,1,74.07,72Z"/><path class="cls-3" d="M98.53,72a1.43,1.43,0,1,1-1.43,1.43A1.43,1.43,0,0,1,98.53,72Z"/><path class="cls-2" d="M98.53,72a1.43,1.43,0,1,1-1.43,1.43A1.43,1.43,0,0,1,98.53,72Z"/><path class="cls-2" d="M96.51,94.2A16.44,16.44,0,0,1,86.3,97.8h0a16.45,16.45,0,0,1-10.22-3.6"/><line class="cls-2" x1="86.3" y1="76.19" x2="86.3" y2="81.34"/><path class="cls-2" d="M86.3,87.93a3.3,3.3,0,0,0,0-6.59"/><path class="cls-2" d="M59.93,82.48v2.73c0,.41,0,.82,0,1.22-5.53.06-8.34-4-8.34-11.32,0-4.78,4-6.36,8.31-6.33Z"/><path class="cls-2" d="M59.93,72.76c-5.57-.41-4.44,5.38-3.61,7.49"/><path class="cls-2" d="M112.67,82.48c0,.19,0,.39,0,.58v2.15c0,.41,0,.82,0,1.22,5.54.06,8.35-4,8.35-11.32,0-4.78-4-6.36-8.32-6.33Q112.66,75.63,112.67,82.48Z"/><path class="cls-2" d="M112.67,72.76c5.57-.41,4.44,5.38,3.61,7.49"/><path class="cls-2" d="M102.55,68a6.41,6.41,0,0,0-8,0"/><path class="cls-2" d="M78.09,68a6.4,6.4,0,0,0-8,0"/><path class="cls-3" d="M73.69,87.34c-4-2-5.57,3.48-8.72,2.49s-4.88-4.46-4.88-4.46a122.49,122.49,0,0,0,.53,13.36c.41,3.92,5.08,7.15,7.15,7.15s.38,0,.58,0c.69,3.23,4.43,5.64,7,5.64A5.58,5.58,0,0,0,79.76,110a7.15,7.15,0,0,0,13.07,0,5.6,5.6,0,0,0,4.43,1.53c2.55,0,6.29-2.41,7-5.64.19,0-1.5,0,.58,0s6.74-3.23,7.14-7.15a116.38,116.38,0,0,0,.53-13.36s-1.73,3.48-4.88,4.46-4.72-4.47-8.72-2.49C90.12,91.66,82.47,91.66,73.69,87.34Zm-2.09,6c0-2.56,2.49-4.34,5.9-2.82,7.23,3.2,10.37,3.2,17.59,0C98.5,89,101,90.82,101,93.38c0,2.74.22,8.09-2.25,9.55-6.45,3.79-9.22-1.54-11.51-1.54H83.69c-2.84,0-4,5-9.84,1.54C71.38,101.47,71.63,96.12,71.6,93.38Z"/><path class="cls-2" d="M73.69,87.34c-4-2-5.57,3.48-8.72,2.49s-4.88-4.46-4.88-4.46a122.49,122.49,0,0,0,.53,13.36c.41,3.92,5.08,7.15,7.15,7.15s.38,0,.58,0c.69,3.23,4.43,5.64,7,5.64A5.58,5.58,0,0,0,79.76,110a7.15,7.15,0,0,0,13.07,0,5.6,5.6,0,0,0,4.43,1.53c2.55,0,6.29-2.41,7-5.64.19,0-1.5,0,.58,0s6.74-3.23,7.14-7.15a116.38,116.38,0,0,0,.53-13.36s-1.73,3.48-4.88,4.46-4.72-4.47-8.72-2.49C90.12,91.66,82.47,91.66,73.69,87.34Zm-2.09,6c0-2.56,2.49-4.34,5.9-2.82,7.23,3.2,10.37,3.2,17.59,0C98.5,89,101,90.82,101,93.38c0,2.74.22,8.09-2.25,9.55-6.45,3.79-9.22-1.54-11.51-1.54H83.69c-2.84,0-4,5-9.84,1.54C71.38,101.47,71.63,96.12,71.6,93.38Z"/><path class="cls-2" d="M77.59,116.34a9.88,9.88,0,0,1-1.21-4.74v-4.71a26,26,0,0,0,9.92,2h0a26.07,26.07,0,0,0,9.92-2v4.71A9.77,9.77,0,0,1,95,116.34"/><path class="cls-2" d="M86.3,147.85H47c0-17.48,5.26-27.93,16.12-32.31,2.08,6,11.29,8.26,23.15,8.29s21.07-2.26,23.14-8.29c10.86,4.38,16.12,14.83,16.12,32.31"/><path class="cls-2" d="M103.16,102.71c3.65,1.22,6.72,4.23,6.72,10.1,0,8.1-10.08,11-23.58,11s-23.58-2.92-23.58-11c0-5.87,3.06-8.88,6.72-10.1"/><path class="cls-2" d="M99.58,105.23c4.63,0,6.51,6.25,1.53,8.54-5.73,2.63-12.82,4.87-14.81,6.87-2-2-9.08-4.24-14.82-6.87-5-2.29-3.09-8.54,1.53-8.54"/><line class="cls-2" x1="79.16" y1="120.77" x2="79.16" y2="138.65"/><line class="cls-2" x1="93.43" y1="120.77" x2="93.43" y2="138.65"/></g></g></svg>