<svg xmlns="http://www.w3.org/2000/svg" viewBox="0 0 175.85 175.85"><defs><style>.cls-1,.cls-2{fill:none;}.cls-2{stroke:#231f20;stroke-linecap:round;stroke-linejoin:round;stroke-width:1.83px;}.cls-3{fill:#231f20;fill-rule:evenodd;}</style></defs><title>2Asset 4</title><g id="Layer_2" data-name="Layer 2"><g id="Layer_1-2" data-name="Layer 1"><circle class="cls-1" cx="87.93" cy="87.93" r="87.93"/><path class="cls-2" d="M86.3,40.83h0A26.44,26.44,0,0,1,112.66,67.2V79.34a26.37,26.37,0,1,1-52.73,0V67.2A26.45,26.45,0,0,1,86.3,40.83Z"/><path class="cls-3" d="M74.07,68.85a1.43,1.43,0,1,1-1.43,1.43A1.43,1.43,0,0,1,74.07,68.85Z"/><path class="cls-2" d="M74.07,68.85a1.43,1.43,0,1,1-1.43,1.43A1.43,1.43,0,0,1,74.07,68.85Z"/><path class="cls-3" d="M98.52,68.85a1.43,1.43,0,1,1-1.42,1.43A1.43,1.43,0,0,1,98.52,68.85Z"/><path class="cls-2" d="M98.52,68.85a1.43,1.43,0,1,1-1.42,1.43A1.43,1.43,0,0,1,98.52,68.85Z"/><path class="cls-2" d="M96.51,91.06A16.39,16.39,0,0,1,86.3,94.67h0a16.4,16.4,0,0,1-10.22-3.61"/><line class="cls-2" x1="86.3" y1="73.06" x2="86.3" y2="78.2"/><path class="cls-2" d="M86.3,84.79a3.3,3.3,0,0,0,0-6.59"/><path class="cls-2" d="M60,65.65c0,.51,0,1,0,1.55V79.34a25.78,25.78,0,0,0,.3,4c-5.71.19-8.61-3.89-8.61-11.32C51.62,67.17,55.66,65.6,60,65.65Z"/><path class="cls-2" d="M59.93,69.62c-5.57-.4-4.44,5.38-3.61,7.5"/><path class="cls-3" d="M66.32,52.77c.75,8.62-6.39,14.52-6.39,22.56V67.2c0-.52,0-1,0-1.55a13.87,13.87,0,0,0-2.92.25c-1.25-9.39-.46-20.45,5.81-20.45-1-25.18,52-18.12,52.88,6.25a87.84,87.84,0,0,1-.7,14.11,14.89,14.89,0,0,0-2.43-.16c0,.51,0,1,0,1.55v8.13h0C111,45.91,90.28,62.47,66.32,52.77Z"/><path class="cls-2" d="M66.32,52.77c.75,8.62-6.39,14.52-6.39,22.56V67.2c0-.52,0-1,0-1.55a13.87,13.87,0,0,0-2.92.25c-1.25-9.39-.46-20.45,5.81-20.45-1-25.18,52-18.12,52.88,6.25a87.84,87.84,0,0,1-.7,14.11,14.89,14.89,0,0,0-2.43-.16c0,.51,0,1,0,1.55v8.13h0C111,45.91,90.28,62.47,66.32,52.77Z"/><path class="cls-2" d="M112.62,65.65c0,.51,0,1,0,1.55V79.34a25.78,25.78,0,0,1-.3,4C118.08,83.48,121,79.4,121,72,121,67.17,116.94,65.6,112.62,65.65Z"/><path class="cls-2" d="M112.67,69.62c5.57-.4,4.44,5.38,3.61,7.5"/><path class="cls-2" d="M64.19,65.51H82.36v8.15a4.16,4.16,0,0,1-4.14,4.15H68.33a4.16,4.16,0,0,1-4.14-4.15Z"/><path class="cls-2" d="M90.23,65.51H108.4v8.15a4.16,4.16,0,0,1-4.14,4.15H94.37a4.16,4.16,0,0,1-4.14-4.15Z"/><line class="cls-2" x1="82.36" y1="70.54" x2="90.23" y2="70.54"/><line class="cls-2" x1="108.4" y1="69.59" x2="113.84" y2="65.68"/><line class="cls-2" x1="64.19" y1="69.59" x2="58.75" y2="65.68"/><path class="cls-2" d="M77.59,113.21a9.92,9.92,0,0,1-1.21-4.75v-4.7a26.18,26.18,0,0,0,9.92,1.95h0a26.26,26.26,0,0,0,9.92-1.95v4.7A9.81,9.81,0,0,1,95,113.21"/><path class="cls-2" d="M86.3,144.71H47c0-17.48,5.26-27.93,16.13-32.3,2.07,6,11.28,8.25,23.14,8.28s21.07-2.26,23.14-8.28c10.86,4.37,16.12,14.82,16.12,32.3"/><path class="cls-2" d="M103.16,99.57c3.65,1.22,6.72,4.23,6.72,10.1,0,8.1-10.08,11-23.58,11s-23.58-2.92-23.58-11c0-5.87,3.06-8.88,6.72-10.1"/><path class="cls-2" d="M99.58,102.09c4.63,0,6.52,6.25,1.53,8.54-5.73,2.64-12.82,4.87-14.81,6.87-2-2-9.08-4.23-14.82-6.87-5-2.29-3.09-8.54,1.53-8.54"/><line class="cls-2" x1="79.17" y1="117.63" x2="79.17" y2="135.51"/><line class="cls-2" x1="93.43" y1="117.63" x2="93.43" y2="135.51"/></g></g></svg>