<svg xmlns="http://www.w3.org/2000/svg" viewBox="0 0 175.85 175.85"><defs><style>.cls-1,.cls-2{fill:none;}.cls-2{stroke:#231f20;stroke-linecap:round;stroke-linejoin:round;stroke-width:1.83px;}.cls-3{fill:#231f20;fill-rule:evenodd;}</style></defs><title>2Asset 1</title><g id="Layer_2" data-name="Layer 2"><g id="Layer_1-2" data-name="Layer 1"><circle class="cls-1" cx="87.93" cy="87.93" r="87.93"/><path class="cls-2" d="M87.93,40.09h0a26.44,26.44,0,0,1,26.36,26.37V78.6a26.37,26.37,0,1,1-52.73,0V66.46A26.45,26.45,0,0,1,87.93,40.09Z"/><path class="cls-2" d="M97.85,103v4.7a10,10,0,0,1-9.92,9.92h0A10,10,0,0,1,78,107.72V103a26.18,26.18,0,0,0,9.92,2h0A26.26,26.26,0,0,0,97.85,103Z"/><path class="cls-2" d="M87.93,144H48.66c0-23.54,9.54-34.34,29.47-34.7a10,10,0,0,0,9.8,8.37h0a10,10,0,0,0,9.8-8.37c19.92.36,29.46,11.16,29.46,34.7"/><path class="cls-2" d="M97.73,109.27c1.47,0,2.88.11,4.24.25-3.24,16-24.84,16-28.09,0,1.36-.14,2.78-.23,4.25-.25a10,10,0,0,0,9.8,8.37h0A10,10,0,0,0,97.73,109.27Z"/><path class="cls-3" d="M75.7,68.11a1.43,1.43,0,1,1-1.43,1.43A1.43,1.43,0,0,1,75.7,68.11Z"/><path class="cls-2" d="M75.7,68.11a1.43,1.43,0,1,1-1.43,1.43A1.43,1.43,0,0,1,75.7,68.11Z"/><path class="cls-3" d="M100.16,68.11a1.43,1.43,0,1,1-1.43,1.43A1.43,1.43,0,0,1,100.16,68.11Z"/><path class="cls-2" d="M100.16,68.11a1.43,1.43,0,1,1-1.43,1.43A1.43,1.43,0,0,1,100.16,68.11Z"/><path class="cls-2" d="M98.14,90.32a16.45,16.45,0,0,1-10.21,3.61h0a16.48,16.48,0,0,1-10.22-3.61"/><line class="cls-2" x1="87.93" y1="72.32" x2="87.93" y2="77.46"/><path class="cls-2" d="M87.93,84.05a3.3,3.3,0,0,0,0-6.59"/><path class="cls-2" d="M61.61,64.9c0,.52,0,1,0,1.56V78.6a25.78,25.78,0,0,0,.3,4c-5.71.19-8.61-3.9-8.61-11.32C53.25,66.43,57.29,64.86,61.61,64.9Z"/><path class="cls-2" d="M61.56,68.88c-5.57-.4-4.44,5.38-3.61,7.49"/><path class="cls-2" d="M114.25,64.9c0,.52,0,1,0,1.56V78.6a25.78,25.78,0,0,1-.3,4c5.71.19,8.61-3.9,8.61-11.32C122.61,66.43,118.57,64.86,114.25,64.9Z"/><path class="cls-2" d="M114.3,68.88c5.57-.4,4.44,5.38,3.61,7.49"/><path class="cls-3" d="M70.22,53.8c-3.31-1.34-8.66,12.75-8.66,20.79h-.7c-2-10.27-.6-23.73,1.61-28.5,7-15,53.34-20.13,49.38-3.92,5.75,5.45,6,20,3.12,32.42h-.68c-.46-8.12-4.4-22.13-7.71-20.79C97.61,57.43,79.19,57.43,70.22,53.8Z"/><path class="cls-2" d="M70.22,53.8c-3.31-1.34-8.66,12.75-8.66,20.79h-.7c-2-10.27-.6-23.73,1.61-28.5,7-15,53.34-20.13,49.38-3.92,5.75,5.45,6,20,3.12,32.42h-.68c-.46-8.12-4.4-22.13-7.71-20.79C97.61,57.43,79.19,57.43,70.22,53.8Z"/><path class="cls-2" d="M104.18,64.1a6.41,6.41,0,0,0-8.05,0"/><path class="cls-2" d="M79.72,64.1a6.4,6.4,0,0,0-8,0"/></g></g></svg>