<?xml version="1.0" encoding="utf-8"?>
<!-- Generator: Adobe Illustrator 22.1.0, SVG Export Plug-In . SVG Version: 6.00 Build 0)  -->
<svg version="1.1" id="Layer_1" xmlns="http://www.w3.org/2000/svg" xmlns:xlink="http://www.w3.org/1999/xlink" x="0px" y="0px"
	 viewBox="0 0 89 25" style="enable-background:new 0 0 89 25;" xml:space="preserve">
<style type="text/css">
	.st0{fill:#FFFFFF;}
	.st1{fill:#1C313A;}
	.st2{font-family:'Roboto-Light';}
	.st3{font-size:10px;}
	.st4{enable-background:new    ;}
</style>
<g id="Group_126" transform="translate(-91 -1173)">
	<path id="Rectangle_40" class="st0" d="M96,1173h79c2.8,0,5,2.2,5,5v15c0,2.8-2.2,5-5,5H96c-2.8,0-5-2.2-5-5v-15
		C91,1175.2,93.2,1173,96,1173z"/>
	<text transform="matrix(1 0 0 1 124 1189)" class="st1 st2 st3">Check-in</text>
	<g class="st4">
		<path class="st1" d="M112.6,1182.1c0.3,0,0.5,0.1,0.7,0.3s0.3,0.4,0.3,0.7v5.6c0,0.3-0.1,0.5-0.3,0.7s-0.4,0.3-0.7,0.3h-8.1
			c-0.3,0-0.5-0.1-0.7-0.3s-0.3-0.4-0.3-0.7v-5.6c0-0.3,0.1-0.5,0.3-0.7s0.4-0.3,0.7-0.3h2.2v-0.8c0-0.1,0-0.2,0.1-0.3
			s0.2-0.1,0.3-0.1h2.8c0.1,0,0.2,0,0.3,0.1s0.1,0.2,0.1,0.3v0.8H112.6z M105.4,1189v-6.2h-0.9c-0.1,0-0.2,0-0.2,0.1
			s-0.1,0.1-0.1,0.2v5.6c0,0.1,0,0.2,0.1,0.2s0.1,0.1,0.2,0.1H105.4z M111,1189v-6.2h-5v6.2H111z M107.2,1181.5v0.6h2.5v-0.6H107.2z
			 M112.9,1188.7v-5.6c0-0.1,0-0.2-0.1-0.2s-0.1-0.1-0.2-0.1h-0.9v6.2h0.9c0.1,0,0.2,0,0.2-0.1S112.9,1188.8,112.9,1188.7z"/>
	</g>
</g>
</svg>
