<?xml version="1.0" encoding="utf-8"?>
<!-- Generator: Adobe Illustrator 22.1.0, SVG Export Plug-In . SVG Version: 6.00 Build 0)  -->
<svg version="1.1" id="Layer_1" xmlns="http://www.w3.org/2000/svg" xmlns:xlink="http://www.w3.org/1999/xlink" x="0px" y="0px"
	 viewBox="0 0 149 25" style="enable-background:new 0 0 149 25;" xml:space="preserve">
<style type="text/css">
	.st0{fill:#FFFFFF;}
	.st1{fill:#1C313A;}
	.st2{font-family:'Roboto-Light';}
	.st3{font-size:10px;}
	.st4{enable-background:new    ;}
</style>
<g id="Group_124" transform="translate(-91 -442)">
	<path id="Rectangle_36" class="st0" d="M96,442h139c2.8,0,5,2.2,5,5v15c0,2.8-2.2,5-5,5H96c-2.8,0-5-2.2-5-5v-15
		C91,444.2,93.2,442,96,442z"/>
	<text transform="matrix(1 0 0 1 124 458)" class="st1 st2 st3">Food, Japanese, Family</text>
	<g class="st4">
		<path class="st1" d="M103.5,450.4c0-0.3,0.1-0.6,0.3-0.8s0.5-0.3,0.8-0.4s0.6,0.1,0.8,0.3l3.8,3.5l0.2-0.2
			c-0.3-0.8-0.1-1.5,0.5-2.1c0.3-0.3,0.9-0.7,1.7-1.3c0.2-0.1,0.4-0.2,0.6-0.1s0.4,0.1,0.5,0.3s0.2,0.3,0.3,0.5
			c0.2,0,0.4,0.1,0.6,0.3s0.3,0.4,0.3,0.6c0.2,0,0.4,0.1,0.5,0.3s0.3,0.3,0.3,0.5s0,0.4-0.1,0.6c-0.6,0.8-1,1.4-1.3,1.7
			c-0.6,0.6-1.3,0.8-2.1,0.5l-0.1,0.2l2.1,2c0.2,0.2,0.4,0.5,0.4,0.8s-0.1,0.6-0.3,0.8l-0.5,0.5c-0.2,0.2-0.5,0.4-0.9,0.4
			s-0.6-0.1-0.8-0.4l-1.8-2.1l-1.8,2.1c-0.2,0.2-0.5,0.4-0.8,0.4s-0.6-0.1-0.9-0.4l-0.5-0.5c-0.2-0.2-0.4-0.5-0.4-0.9
			s0.1-0.6,0.4-0.8l2.1-1.8c-1.2-0.1-2.1-0.5-2.7-1.2C103.8,452.9,103.5,451.8,103.5,450.4z M104.1,450.4c0,1.2,0.3,2.1,0.8,2.8
			c0.6,0.7,1.6,1.1,2.9,1.1l3.6,4.2c0.1,0.1,0.2,0.2,0.4,0.2s0.3-0.1,0.4-0.2l0.5-0.5c0.1-0.1,0.2-0.3,0.2-0.4s-0.1-0.3-0.2-0.4
			L105,450c-0.1-0.1-0.2-0.2-0.4-0.1s-0.3,0.1-0.4,0.2S104.1,450.3,104.1,450.4z M107.8,455.2l-2.2,2c-0.1,0.1-0.2,0.2-0.2,0.4
			s0.1,0.3,0.2,0.4l0.5,0.5c0.1,0.1,0.3,0.2,0.4,0.2s0.3-0.1,0.4-0.2l1.9-2.1L107.8,455.2z M110.9,453.9c0.3,0.2,0.7,0.3,1,0.2
			s0.7-0.2,0.9-0.5c0.2-0.2,0.4-0.5,0.8-0.9l0.5-0.7c0,0,0-0.1,0-0.2s-0.1-0.1-0.2-0.2s-0.1,0-0.2,0l-1.6,1.6c-0.1,0-0.1,0-0.2,0
			s-0.1-0.1-0.2-0.2s0-0.1,0-0.2l1.5-1.7c0,0,0-0.1,0-0.2s-0.1-0.1-0.2-0.2s-0.1,0-0.2,0l-1.7,1.5c-0.1,0-0.1,0-0.2,0
			s-0.1-0.1-0.2-0.2s0-0.1,0-0.2l1.6-1.6c0-0.1,0-0.1,0-0.2s-0.1-0.1-0.2-0.2s-0.1,0-0.2,0l-0.7,0.5c-0.5,0.4-0.8,0.6-1,0.8
			c-0.3,0.3-0.4,0.6-0.5,0.9s0,0.7,0.2,1l-0.4,0.4l0.9,0.8L110.9,453.9z"/>
	</g>
</g>
</svg>
