<?xml version="1.0" encoding="utf-8"?>
<!-- Generator: Adobe Illustrator 22.1.0, SVG Export Plug-In . SVG Version: 6.00 Build 0)  -->
<svg version="1.1" id="Layer_1" xmlns="http://www.w3.org/2000/svg" xmlns:xlink="http://www.w3.org/1999/xlink" x="0px" y="0px"
	 viewBox="0 0 177.6 36.7" style="enable-background:new 0 0 177.6 36.7;" xml:space="preserve">
<style type="text/css">
	.st0{fill:#FF1D25;}
	.st1{enable-background:new    ;}
</style>
<path class="st0" d="M2.8,8.8L2.8,8.8c1.6,0,2.8,1.3,2.8,2.8v12.2c0,1.6-1.3,2.8-2.8,2.8h0c-1.6,0-2.8-1.3-2.8-2.8V11.6
	C0,10.1,1.3,8.8,2.8,8.8z"/>
<g>
	<path d="M17.9,8.8h-3.4V7.2c0-4-3.2-7.2-7.2-7.2c0,0,0,0,0,0H0v5.7h6c1.5,0,2.8,1.3,2.8,2.8v28.2h5.6V14.4h2.2
		c1.6,0,2.8,1.3,2.8,2.8v9.4h5.6V16C25.1,12,21.9,8.8,17.9,8.8C17.9,8.8,17.9,8.8,17.9,8.8z"/>
	<g class="st1">
		<path d="M38.8,26.3V9.2H43v17.1H38.8z"/>
		<path d="M58.5,26.3l-5.5-8.6v8.6h-4.2V9.2h3.7l5.5,8.6V9.2h4.2v17.1H58.5z"/>
	</g>
	<g class="st1">
		<path d="M73.4,26.3h-1.3V10.3h-5.1V9.2h11.5v1.2h-5.1V26.3z"/>
		<path d="M90.3,18.4h-4.7v7.9h-1.3V9.2h6.5c2.8,0,4.9,1.6,4.9,4.6c0,2.6-1.5,4.2-3.9,4.6l4.1,7.9h-1.5L90.3,18.4z M90.7,10.3h-5
			v6.9h5c2.2,0,3.8-1.1,3.8-3.5C94.4,11.4,92.9,10.3,90.7,10.3z"/>
		<path d="M111.1,22.1h-8l-1.5,4.2h-1.4l6.3-17.1h1.2l6.3,17.1h-1.4L111.1,22.1z M103.5,21h7.2l-3.6-10.1L103.5,21z"/>
		<path d="M120.6,11.4v14.9h-1.3V9.2h1.3l9.9,14.8V9.2h1.3v17.1h-1.3L120.6,11.4z"/>
		<path d="M143.7,26.4c-2.5,0-4.1-0.7-5.7-2.3l0.9-0.9c1.5,1.5,2.8,2,4.8,2c2.7,0,4.4-1.3,4.4-3.5c0-1-0.3-1.8-0.9-2.4
			c-0.6-0.5-1.1-0.7-2.5-0.9l-2-0.3c-1.3-0.2-2.3-0.6-3-1.2c-0.9-0.7-1.3-1.8-1.3-3.1c0-2.9,2-4.7,5.3-4.7c2.1,0,3.5,0.6,4.9,1.8
			l-0.8,0.8c-1-1-2.1-1.6-4.2-1.6c-2.5,0-4,1.3-4,3.5c0,1,0.3,1.7,0.9,2.2c0.6,0.5,1.6,0.9,2.5,1.1l1.8,0.3c1.6,0.2,2.4,0.5,3,1.1
			c0.9,0.8,1.5,1.9,1.5,3.3C149.5,24.6,147.3,26.4,143.7,26.4z"/>
		<path d="M156,9.2h1.3v17.1H156V9.2z"/>
		<path d="M169.4,26.3h-1.3V10.3H163V9.2h11.5v1.2h-5.1V26.3z"/>
	</g>
</g>
</svg>
