<?xml version="1.0" encoding="utf-8"?>
<!-- Generator: Adobe Illustrator 22.1.0, SVG Export Plug-In . SVG Version: 6.00 Build 0)  -->
<svg version="1.1" id="Layer_1" xmlns="http://www.w3.org/2000/svg" xmlns:xlink="http://www.w3.org/1999/xlink" x="0px" y="0px"
	 viewBox="0 0 306.5 181" style="enable-background:new 0 0 306.5 181;" xml:space="preserve">
<style type="text/css">
	.st0{fill:#FFFFFF;}
	.st1{fill:#F50A46;}
	.st2{enable-background:new    ;}
	.st3{fill:url(#Path_41_1_);}
	.st4{opacity:0.6;fill:none;stroke:#FFFFFF;enable-background:new    ;}
</style>
<path id="Union_1" class="st0" d="M88.3,25H11.5c-3.3,0-6-2.7-6-6V6c0-3.3,2.7-6,6-6H91c3.3,0,6,2.7,6,6v26.5L88.3,25z"/>
<g id="Union_2" transform="translate(268 1504)">
	<path class="st1" d="M25.8-1472l-7.2-7.2l-0.1-0.1h-0.1H-59c-3.2,0-5.8-2.6-5.8-5.8v-13c0-3.2,2.6-5.8,5.8-5.8h79
		c3.2,0,5.8,2.6,5.8,5.8v17.1V-1472z"/>
	<path class="st1" d="M25.6-1472.5v-8.5v-17.1c0-3.1-2.5-5.6-5.6-5.6h-79c-3.1,0-5.6,2.5-5.6,5.6v13c0,3.1,2.5,5.6,5.6,5.6h77.5h0.2
		l0.1,0.1L25.6-1472.5 M26-1471.5l-7.5-7.5H-59c-3.3,0-6-2.7-6-6v-13c0-3.3,2.7-6,6-6h79c3.3,0,6,2.7,6,6v17.1V-1471.5z"/>
</g>
<g class="st2">
	<path class="st0" d="M1.8,173.1l-1.6-0.5l0.2-0.5l1.6,0.6l0-1.8h0.5l0,1.8l1.6-0.6l0.2,0.5l-1.6,0.6l1.1,1.4l-0.4,0.3l-1-1.5
		l-1,1.5l-0.4-0.3L1.8,173.1z"/>
	<path class="st0" d="M11.5,174.6H8.2v2.9H12v0.5H7.6v-7.1H12v0.5H8.2v2.7h3.3V174.6z"/>
	<path class="st0" d="M16.3,176.7c0-0.3-0.1-0.5-0.3-0.7s-0.6-0.3-1.1-0.4c-0.5-0.1-0.8-0.2-1.1-0.3c-0.3-0.1-0.5-0.3-0.6-0.5
		s-0.2-0.4-0.2-0.7c0-0.4,0.2-0.8,0.5-1c0.3-0.3,0.8-0.4,1.3-0.4c0.6,0,1.1,0.1,1.4,0.4c0.4,0.3,0.5,0.7,0.5,1.1h-0.6
		c0-0.3-0.1-0.6-0.4-0.8s-0.6-0.3-1-0.3c-0.4,0-0.7,0.1-0.9,0.3c-0.2,0.2-0.3,0.4-0.3,0.7c0,0.3,0.1,0.5,0.3,0.6
		c0.2,0.1,0.5,0.3,1.1,0.4s0.9,0.2,1.2,0.4s0.4,0.3,0.6,0.5s0.2,0.4,0.2,0.7c0,0.4-0.2,0.8-0.5,1.1s-0.8,0.4-1.4,0.4
		c-0.6,0-1.1-0.1-1.5-0.4c-0.4-0.3-0.6-0.7-0.6-1.1h0.6c0,0.3,0.2,0.6,0.4,0.8c0.3,0.2,0.6,0.3,1.1,0.3c0.4,0,0.7-0.1,1-0.3
		S16.3,176.9,16.3,176.7z"/>
	<path class="st0" d="M19.1,171.4v1.4h1.1v0.5h-1.1v3.5c0,0.3,0.1,0.5,0.2,0.7s0.3,0.2,0.5,0.2c0.1,0,0.3,0,0.5,0l0,0.5
		c-0.2,0.1-0.4,0.1-0.6,0.1c-0.4,0-0.7-0.1-0.9-0.3c-0.2-0.2-0.3-0.6-0.3-1v-3.5h-1v-0.5h1v-1.4H19.1z"/>
	<path class="st0" d="M21.4,171.2c0-0.1,0-0.2,0.1-0.3s0.2-0.1,0.3-0.1s0.2,0,0.3,0.1s0.1,0.2,0.1,0.3c0,0.1,0,0.2-0.1,0.3
		s-0.2,0.1-0.3,0.1s-0.2,0-0.3-0.1S21.4,171.3,21.4,171.2z M22.1,178h-0.6v-5.3h0.6V178z"/>
	<path class="st0" d="M24.2,172.7l0,0.9c0.2-0.3,0.4-0.6,0.7-0.7s0.6-0.2,1-0.2c0.8,0,1.4,0.3,1.6,1c0.2-0.3,0.4-0.6,0.8-0.8
		c0.3-0.2,0.7-0.3,1-0.3c1.1,0,1.7,0.6,1.7,1.9v3.5h-0.6v-3.5c0-0.5-0.1-0.8-0.3-1s-0.5-0.3-1-0.3c-0.4,0-0.8,0.1-1.1,0.4
		c-0.3,0.3-0.5,0.6-0.5,1v3.5H27v-3.5c0-0.5-0.1-0.8-0.3-1c-0.2-0.2-0.5-0.3-1-0.3c-0.4,0-0.7,0.1-0.9,0.3c-0.3,0.2-0.5,0.5-0.6,0.9
		v3.6h-0.6v-5.3H24.2z"/>
	<path class="st0" d="M35.8,178c-0.1-0.2-0.1-0.4-0.1-0.7c-0.2,0.3-0.5,0.5-0.8,0.6c-0.3,0.1-0.7,0.2-1,0.2c-0.5,0-0.9-0.1-1.2-0.4
		s-0.5-0.6-0.5-1.1c0-0.5,0.2-0.9,0.6-1.2s1-0.4,1.8-0.4h1.1v-0.6c0-0.4-0.1-0.7-0.3-0.9c-0.2-0.2-0.6-0.3-1-0.3
		c-0.4,0-0.7,0.1-1,0.3s-0.4,0.5-0.4,0.8l-0.6,0c0-0.4,0.2-0.8,0.6-1.1c0.4-0.3,0.9-0.5,1.4-0.5c0.6,0,1.1,0.1,1.4,0.4
		c0.3,0.3,0.5,0.7,0.5,1.2v2.5c0,0.5,0.1,0.9,0.2,1.1v0.1H35.8z M34,177.6c0.4,0,0.7-0.1,1-0.3s0.5-0.4,0.7-0.8v-1.2h-1
		c-0.6,0-1,0.1-1.4,0.3c-0.3,0.2-0.5,0.5-0.5,0.9c0,0.3,0.1,0.5,0.3,0.7S33.7,177.6,34,177.6z"/>
	<path class="st0" d="M38.8,171.4v1.4h1.1v0.5h-1.1v3.5c0,0.3,0.1,0.5,0.2,0.7s0.3,0.2,0.5,0.2c0.1,0,0.3,0,0.5,0l0,0.5
		c-0.2,0.1-0.4,0.1-0.6,0.1c-0.4,0-0.7-0.1-0.9-0.3c-0.2-0.2-0.3-0.6-0.3-1v-3.5h-1v-0.5h1v-1.4H38.8z"/>
	<path class="st0" d="M43.1,178.1c-0.4,0-0.9-0.1-1.2-0.3s-0.6-0.5-0.8-0.9c-0.2-0.4-0.3-0.8-0.3-1.3v-0.2c0-0.5,0.1-1,0.3-1.4
		s0.5-0.7,0.8-1c0.4-0.2,0.7-0.3,1.1-0.3c0.6,0,1.1,0.2,1.5,0.7c0.4,0.4,0.6,1,0.6,1.8v0.3h-3.8v0.1c0,0.6,0.2,1.1,0.5,1.5
		c0.3,0.4,0.8,0.6,1.3,0.6c0.3,0,0.6-0.1,0.8-0.2s0.5-0.3,0.7-0.5l0.4,0.3C44.6,177.8,43.9,178.1,43.1,178.1z M43,173.1
		c-0.4,0-0.8,0.2-1.1,0.5s-0.5,0.8-0.5,1.3h3.2v-0.1c0-0.5-0.2-0.9-0.4-1.2S43.5,173.1,43,173.1z"/>
	<path class="st0" d="M46,175.3c0-0.8,0.2-1.5,0.5-2c0.4-0.5,0.9-0.7,1.5-0.7c0.7,0,1.3,0.3,1.6,0.8v-3h0.6v7.5h-0.5l0-0.7
		c-0.4,0.5-0.9,0.8-1.7,0.8c-0.6,0-1.1-0.2-1.5-0.7C46.2,176.9,46,176.2,46,175.3L46,175.3z M46.6,175.4c0,0.7,0.1,1.2,0.4,1.6
		c0.3,0.4,0.7,0.6,1.1,0.6c0.7,0,1.2-0.3,1.5-1v-2.5c-0.3-0.7-0.8-1-1.5-1c-0.5,0-0.9,0.2-1.1,0.6C46.7,174.1,46.6,174.7,46.6,175.4
		z"/>
	<path class="st0" d="M58.5,175.4c0,0.8-0.2,1.5-0.5,2c-0.4,0.5-0.9,0.7-1.5,0.7c-0.7,0-1.3-0.3-1.7-0.8l0,0.7h-0.5v-7.5h0.6v3
		c0.4-0.6,0.9-0.9,1.7-0.9c0.6,0,1.1,0.2,1.5,0.7C58.3,173.8,58.5,174.5,58.5,175.4L58.5,175.4z M57.9,175.3c0-0.7-0.1-1.2-0.4-1.6
		c-0.3-0.4-0.7-0.6-1.1-0.6c-0.4,0-0.7,0.1-1,0.3c-0.3,0.2-0.5,0.5-0.6,0.8v2.4c0.3,0.7,0.8,1,1.6,1c0.5,0,0.9-0.2,1.1-0.6
		S57.9,176.1,57.9,175.3z"/>
	<path class="st0" d="M61.8,178.1c-0.4,0-0.9-0.1-1.2-0.3s-0.6-0.5-0.8-0.9c-0.2-0.4-0.3-0.8-0.3-1.3v-0.2c0-0.5,0.1-1,0.3-1.4
		s0.5-0.7,0.8-1c0.4-0.2,0.7-0.3,1.1-0.3c0.6,0,1.1,0.2,1.5,0.7c0.4,0.4,0.6,1,0.6,1.8v0.3H60v0.1c0,0.6,0.2,1.1,0.5,1.5
		c0.3,0.4,0.8,0.6,1.3,0.6c0.3,0,0.6-0.1,0.8-0.2s0.5-0.3,0.7-0.5l0.4,0.3C63.3,177.8,62.6,178.1,61.8,178.1z M61.7,173.1
		c-0.4,0-0.8,0.2-1.1,0.5s-0.5,0.8-0.5,1.3h3.2v-0.1c0-0.5-0.2-0.9-0.4-1.2S62.2,173.1,61.7,173.1z"/>
	<path class="st0" d="M68.1,176.7c0-0.3-0.1-0.5-0.3-0.7s-0.6-0.3-1.1-0.4c-0.5-0.1-0.8-0.2-1.1-0.3c-0.3-0.1-0.5-0.3-0.6-0.5
		s-0.2-0.4-0.2-0.7c0-0.4,0.2-0.8,0.5-1c0.3-0.3,0.8-0.4,1.3-0.4c0.6,0,1.1,0.1,1.4,0.4c0.4,0.3,0.5,0.7,0.5,1.1h-0.6
		c0-0.3-0.1-0.6-0.4-0.8s-0.6-0.3-1-0.3c-0.4,0-0.7,0.1-0.9,0.3c-0.2,0.2-0.3,0.4-0.3,0.7c0,0.3,0.1,0.5,0.3,0.6
		c0.2,0.1,0.5,0.3,1.1,0.4s0.9,0.2,1.2,0.4s0.4,0.3,0.6,0.5s0.2,0.4,0.2,0.7c0,0.4-0.2,0.8-0.5,1.1s-0.8,0.4-1.4,0.4
		c-0.6,0-1.1-0.1-1.5-0.4c-0.4-0.3-0.6-0.7-0.6-1.1h0.6c0,0.3,0.2,0.6,0.4,0.8c0.3,0.2,0.6,0.3,1.1,0.3c0.4,0,0.7-0.1,1-0.3
		S68.1,176.9,68.1,176.7z"/>
	<path class="st0" d="M70.9,171.4v1.4H72v0.5h-1.1v3.5c0,0.3,0.1,0.5,0.2,0.7s0.3,0.2,0.5,0.2c0.1,0,0.3,0,0.5,0l0,0.5
		c-0.2,0.1-0.4,0.1-0.6,0.1c-0.4,0-0.7-0.1-0.9-0.3c-0.2-0.2-0.3-0.6-0.3-1v-3.5h-1v-0.5h1v-1.4H70.9z"/>
	<path class="st0" d="M76.6,171.4v1.4h1.1v0.5h-1.1v3.5c0,0.3,0.1,0.5,0.2,0.7s0.3,0.2,0.5,0.2c0.1,0,0.3,0,0.5,0l0,0.5
		c-0.2,0.1-0.4,0.1-0.6,0.1c-0.4,0-0.7-0.1-0.9-0.3c-0.2-0.2-0.3-0.6-0.3-1v-3.5h-1v-0.5h1v-1.4H76.6z"/>
	<path class="st0" d="M78.8,171.2c0-0.1,0-0.2,0.1-0.3s0.2-0.1,0.3-0.1s0.2,0,0.3,0.1s0.1,0.2,0.1,0.3c0,0.1,0,0.2-0.1,0.3
		s-0.2,0.1-0.3,0.1s-0.2,0-0.3-0.1S78.8,171.3,78.8,171.2z M79.5,178h-0.6v-5.3h0.6V178z"/>
	<path class="st0" d="M81.6,172.7l0,0.9c0.2-0.3,0.4-0.6,0.7-0.7s0.6-0.2,1-0.2c0.8,0,1.4,0.3,1.6,1c0.2-0.3,0.4-0.6,0.8-0.8
		c0.3-0.2,0.7-0.3,1-0.3c1.1,0,1.7,0.6,1.7,1.9v3.5h-0.6v-3.5c0-0.5-0.1-0.8-0.3-1s-0.5-0.3-1-0.3c-0.4,0-0.8,0.1-1.1,0.4
		c-0.3,0.3-0.5,0.6-0.5,1v3.5h-0.6v-3.5c0-0.5-0.1-0.8-0.3-1c-0.2-0.2-0.5-0.3-1-0.3c-0.4,0-0.7,0.1-0.9,0.3
		c-0.3,0.2-0.5,0.5-0.6,0.9v3.6h-0.6v-5.3H81.6z"/>
	<path class="st0" d="M92,178.1c-0.4,0-0.9-0.1-1.2-0.3s-0.6-0.5-0.8-0.9c-0.2-0.4-0.3-0.8-0.3-1.3v-0.2c0-0.5,0.1-1,0.3-1.4
		s0.5-0.7,0.8-1c0.4-0.2,0.7-0.3,1.1-0.3c0.6,0,1.1,0.2,1.5,0.7c0.4,0.4,0.6,1,0.6,1.8v0.3h-3.8v0.1c0,0.6,0.2,1.1,0.5,1.5
		c0.3,0.4,0.8,0.6,1.3,0.6c0.3,0,0.6-0.1,0.8-0.2s0.5-0.3,0.7-0.5l0.4,0.3C93.4,177.8,92.8,178.1,92,178.1z M91.9,173.1
		c-0.4,0-0.8,0.2-1.1,0.5s-0.5,0.8-0.5,1.3h3.2v-0.1c0-0.5-0.2-0.9-0.4-1.2S92.3,173.1,91.9,173.1z"/>
	<path class="st0" d="M98.5,171.4v1.4h1.1v0.5h-1.1v3.5c0,0.3,0.1,0.5,0.2,0.7s0.3,0.2,0.5,0.2c0.1,0,0.3,0,0.5,0l0,0.5
		c-0.2,0.1-0.4,0.1-0.6,0.1c-0.4,0-0.7-0.1-0.9-0.3c-0.2-0.2-0.3-0.6-0.3-1v-3.5h-1v-0.5h1v-1.4H98.5z"/>
	<path class="st0" d="M100.4,175.3c0-0.5,0.1-1,0.3-1.4s0.5-0.7,0.8-0.9c0.4-0.2,0.8-0.3,1.2-0.3c0.7,0,1.3,0.2,1.7,0.7
		c0.4,0.5,0.7,1.1,0.7,2v0.1c0,0.5-0.1,1-0.3,1.4c-0.2,0.4-0.5,0.7-0.8,0.9s-0.8,0.3-1.2,0.3c-0.7,0-1.3-0.2-1.7-0.7
		c-0.4-0.5-0.7-1.1-0.7-2V175.3z M100.9,175.4c0,0.6,0.2,1.2,0.5,1.6c0.3,0.4,0.8,0.6,1.3,0.6c0.5,0,1-0.2,1.3-0.6
		c0.3-0.4,0.5-0.9,0.5-1.6v-0.1c0-0.4-0.1-0.8-0.2-1.1s-0.4-0.6-0.6-0.8c-0.3-0.2-0.6-0.3-0.9-0.3c-0.5,0-0.9,0.2-1.3,0.6
		c-0.3,0.4-0.5,0.9-0.5,1.6V175.4z"/>
	<path class="st0" d="M108.5,175.3c0-0.8,0.2-1.5,0.5-2c0.4-0.5,0.9-0.7,1.5-0.7c0.7,0,1.3,0.3,1.6,0.8l0-0.7h0.5v7.3h-0.6v-2.7
		c-0.4,0.5-0.9,0.8-1.6,0.8c-0.6,0-1.1-0.2-1.5-0.7S108.5,176.2,108.5,175.3L108.5,175.3z M109.1,175.4c0,0.7,0.1,1.2,0.4,1.6
		c0.3,0.4,0.7,0.6,1.1,0.6c0.7,0,1.2-0.3,1.5-0.9v-2.6c-0.1-0.3-0.3-0.6-0.6-0.7c-0.3-0.2-0.6-0.3-0.9-0.3c-0.5,0-0.9,0.2-1.2,0.6
		C109.2,174.1,109.1,174.7,109.1,175.4z"/>
	<path class="st0" d="M117.7,177.3c-0.4,0.5-0.9,0.8-1.7,0.8c-0.6,0-1-0.2-1.3-0.5c-0.3-0.3-0.4-0.8-0.4-1.5v-3.4h0.6v3.4
		c0,1,0.4,1.5,1.2,1.5c0.8,0,1.4-0.3,1.6-1v-3.8h0.6v5.3h-0.6L117.7,177.3z"/>
	<path class="st0" d="M121.8,178.1c-0.4,0-0.9-0.1-1.2-0.3s-0.6-0.5-0.8-0.9c-0.2-0.4-0.3-0.8-0.3-1.3v-0.2c0-0.5,0.1-1,0.3-1.4
		s0.5-0.7,0.8-1c0.4-0.2,0.7-0.3,1.1-0.3c0.6,0,1.1,0.2,1.5,0.7c0.4,0.4,0.6,1,0.6,1.8v0.3H120v0.1c0,0.6,0.2,1.1,0.5,1.5
		c0.3,0.4,0.8,0.6,1.3,0.6c0.3,0,0.6-0.1,0.8-0.2s0.5-0.3,0.7-0.5l0.4,0.3C123.3,177.8,122.6,178.1,121.8,178.1z M121.7,173.1
		c-0.4,0-0.8,0.2-1.1,0.5s-0.5,0.8-0.5,1.3h3.2v-0.1c0-0.5-0.2-0.9-0.4-1.2S122.2,173.1,121.7,173.1z"/>
	<path class="st0" d="M128.3,177.3c-0.4,0.5-0.9,0.8-1.7,0.8c-0.6,0-1-0.2-1.3-0.5c-0.3-0.3-0.4-0.8-0.4-1.5v-3.4h0.6v3.4
		c0,1,0.4,1.5,1.2,1.5c0.8,0,1.4-0.3,1.6-1v-3.8h0.6v5.3h-0.6L128.3,177.3z"/>
	<path class="st0" d="M132.5,178.1c-0.4,0-0.9-0.1-1.2-0.3s-0.6-0.5-0.8-0.9c-0.2-0.4-0.3-0.8-0.3-1.3v-0.2c0-0.5,0.1-1,0.3-1.4
		s0.5-0.7,0.8-1c0.4-0.2,0.7-0.3,1.1-0.3c0.6,0,1.1,0.2,1.5,0.7c0.4,0.4,0.6,1,0.6,1.8v0.3h-3.8v0.1c0,0.6,0.2,1.1,0.5,1.5
		c0.3,0.4,0.8,0.6,1.3,0.6c0.3,0,0.6-0.1,0.8-0.2s0.5-0.3,0.7-0.5l0.4,0.3C133.9,177.8,133.3,178.1,132.5,178.1z M132.4,173.1
		c-0.4,0-0.8,0.2-1.1,0.5s-0.5,0.8-0.5,1.3h3.2v-0.1c0-0.5-0.2-0.9-0.4-1.2S132.8,173.1,132.4,173.1z"/>
</g>
<g class="st2">
	<path class="st0" d="M20.3,154h-0.6v-6.4l-1.9,0.7v-0.5l2.4-0.9h0.1V154z"/>
	<path class="st0" d="M26.7,151.7h1.1v0.5h-1.1v1.8h-0.6v-1.8h-3.3v-0.3l3.3-5h0.6V151.7z M23.5,151.7h2.6v-4.1l-0.3,0.4L23.5,151.7
		z"/>
	<path class="st0" d="M28.6,153.6c0-0.1,0-0.2,0.1-0.3c0.1-0.1,0.2-0.1,0.3-0.1s0.2,0,0.3,0.1c0.1,0.1,0.1,0.2,0.1,0.3
		s0,0.2-0.1,0.3c-0.1,0.1-0.2,0.1-0.3,0.1s-0.2,0-0.3-0.1C28.6,153.9,28.6,153.8,28.6,153.6z M28.6,149.1c0-0.1,0-0.2,0.1-0.3
		c0.1-0.1,0.2-0.1,0.3-0.1s0.2,0,0.3,0.1c0.1,0.1,0.1,0.2,0.1,0.3s0,0.2-0.1,0.3c-0.1,0.1-0.2,0.1-0.3,0.1s-0.2,0-0.3-0.1
		C28.6,149.3,28.6,149.3,28.6,149.1z"/>
	<path class="st0" d="M34.3,151.7h1.1v0.5h-1.1v1.8h-0.6v-1.8h-3.3v-0.3l3.3-5h0.6V151.7z M31.1,151.7h2.6v-4.1l-0.3,0.4L31.1,151.7
		z"/>
	<path class="st0" d="M40.5,151c0,1-0.2,1.8-0.6,2.3c-0.4,0.5-0.9,0.8-1.6,0.8c-0.7,0-1.2-0.3-1.6-0.8c-0.4-0.5-0.6-1.3-0.6-2.2
		v-1.3c0-1,0.2-1.8,0.6-2.3s0.9-0.8,1.6-0.8c0.7,0,1.2,0.2,1.6,0.7c0.4,0.5,0.6,1.2,0.6,2.2V151z M40,149.8c0-0.8-0.1-1.4-0.4-1.8
		s-0.7-0.6-1.2-0.6c-0.5,0-0.9,0.2-1.2,0.6s-0.4,1-0.4,1.8v1.4c0,0.8,0.1,1.4,0.4,1.9s0.7,0.6,1.2,0.6c0.5,0,0.9-0.2,1.2-0.6
		s0.4-1,0.4-1.8V149.8z"/>
</g>
<g class="st2">
	<path class="st0" d="M86.1,154h-0.6v-6.4l-1.9,0.7v-0.5l2.4-0.9h0.1V154z"/>
	<path class="st0" d="M89.4,150.4l0.3-3.5h3.6v0.5h-3.1l-0.2,2.4c0.4-0.3,0.8-0.4,1.3-0.4c0.6,0,1.2,0.2,1.5,0.6s0.6,1,0.6,1.7
		c0,0.7-0.2,1.3-0.6,1.7s-0.9,0.6-1.6,0.6c-0.6,0-1.1-0.2-1.5-0.5c-0.4-0.3-0.6-0.8-0.7-1.5h0.6c0.1,0.5,0.2,0.9,0.5,1.1
		c0.3,0.2,0.6,0.4,1.1,0.4c0.5,0,0.9-0.2,1.2-0.5s0.4-0.8,0.4-1.4c0-0.5-0.1-0.9-0.4-1.3c-0.3-0.3-0.7-0.5-1.2-0.5
		c-0.3,0-0.5,0-0.7,0.1c-0.2,0.1-0.4,0.2-0.6,0.4L89.4,150.4z"/>
	<path class="st0" d="M94.5,153.6c0-0.1,0-0.2,0.1-0.3c0.1-0.1,0.2-0.1,0.3-0.1c0.1,0,0.2,0,0.3,0.1c0.1,0.1,0.1,0.2,0.1,0.3
		s0,0.2-0.1,0.3c-0.1,0.1-0.2,0.1-0.3,0.1c-0.1,0-0.2,0-0.3-0.1C94.5,153.9,94.5,153.8,94.5,153.6z M94.5,149.1c0-0.1,0-0.2,0.1-0.3
		c0.1-0.1,0.2-0.1,0.3-0.1c0.1,0,0.2,0,0.3,0.1c0.1,0.1,0.1,0.2,0.1,0.3s0,0.2-0.1,0.3c-0.1,0.1-0.2,0.1-0.3,0.1
		c-0.1,0-0.2,0-0.3-0.1C94.5,149.3,94.5,149.3,94.5,149.1z"/>
	<path class="st0" d="M100.9,151c0,1-0.2,1.8-0.6,2.3c-0.4,0.5-0.9,0.8-1.6,0.8c-0.7,0-1.2-0.3-1.6-0.8c-0.4-0.5-0.6-1.3-0.6-2.2
		v-1.3c0-1,0.2-1.8,0.6-2.3s0.9-0.8,1.6-0.8c0.7,0,1.2,0.2,1.6,0.7c0.4,0.5,0.6,1.2,0.6,2.2V151z M100.3,149.8
		c0-0.8-0.1-1.4-0.4-1.8c-0.3-0.4-0.7-0.6-1.2-0.6c-0.5,0-0.9,0.2-1.2,0.6c-0.3,0.4-0.4,1-0.4,1.8v1.4c0,0.8,0.1,1.4,0.4,1.9
		c0.3,0.4,0.7,0.6,1.2,0.6c0.5,0,0.9-0.2,1.2-0.6s0.4-1,0.4-1.8V149.8z"/>
	<path class="st0" d="M106.4,151c0,1-0.2,1.8-0.6,2.3c-0.4,0.5-0.9,0.8-1.6,0.8c-0.7,0-1.2-0.3-1.6-0.8c-0.4-0.5-0.6-1.3-0.6-2.2
		v-1.3c0-1,0.2-1.8,0.6-2.3s0.9-0.8,1.6-0.8c0.7,0,1.2,0.2,1.6,0.7c0.4,0.5,0.6,1.2,0.6,2.2V151z M105.9,149.8
		c0-0.8-0.1-1.4-0.4-1.8c-0.3-0.4-0.7-0.6-1.2-0.6c-0.5,0-0.9,0.2-1.2,0.6c-0.3,0.4-0.4,1-0.4,1.8v1.4c0,0.8,0.1,1.4,0.4,1.9
		c0.3,0.4,0.7,0.6,1.2,0.6c0.5,0,0.9-0.2,1.2-0.6s0.4-1,0.4-1.8V149.8z"/>
</g>
<g class="st2">
	<path class="st0" d="M153.9,154h-0.6v-6.4l-1.9,0.7v-0.5l2.4-0.9h0.1V154z"/>
	<path class="st0" d="M157.2,150.4l0.3-3.5h3.6v0.5H158l-0.2,2.4c0.4-0.3,0.8-0.4,1.3-0.4c0.6,0,1.2,0.2,1.5,0.6s0.6,1,0.6,1.7
		c0,0.7-0.2,1.3-0.6,1.7s-0.9,0.6-1.6,0.6c-0.6,0-1.1-0.2-1.5-0.5c-0.4-0.3-0.6-0.8-0.7-1.5h0.6c0.1,0.5,0.2,0.9,0.5,1.1
		c0.3,0.2,0.6,0.4,1.1,0.4c0.5,0,0.9-0.2,1.2-0.5s0.4-0.8,0.4-1.4c0-0.5-0.1-0.9-0.4-1.3c-0.3-0.3-0.7-0.5-1.2-0.5
		c-0.3,0-0.5,0-0.7,0.1c-0.2,0.1-0.4,0.2-0.6,0.4L157.2,150.4z"/>
	<path class="st0" d="M162.3,153.6c0-0.1,0-0.2,0.1-0.3c0.1-0.1,0.2-0.1,0.3-0.1c0.1,0,0.2,0,0.3,0.1c0.1,0.1,0.1,0.2,0.1,0.3
		s0,0.2-0.1,0.3c-0.1,0.1-0.2,0.1-0.3,0.1c-0.1,0-0.2,0-0.3-0.1C162.3,153.9,162.3,153.8,162.3,153.6z M162.3,149.1
		c0-0.1,0-0.2,0.1-0.3c0.1-0.1,0.2-0.1,0.3-0.1c0.1,0,0.2,0,0.3,0.1c0.1,0.1,0.1,0.2,0.1,0.3s0,0.2-0.1,0.3
		c-0.1,0.1-0.2,0.1-0.3,0.1c-0.1,0-0.2,0-0.3-0.1C162.3,149.3,162.3,149.3,162.3,149.1z"/>
	<path class="st0" d="M168.9,154h-4.5v-0.4l2.4-2.8c0.4-0.5,0.7-0.8,0.8-1.2s0.2-0.6,0.2-0.9c0-0.4-0.1-0.8-0.4-1.1
		c-0.3-0.3-0.6-0.4-1.1-0.4c-0.5,0-0.9,0.2-1.2,0.5c-0.3,0.3-0.4,0.7-0.4,1.2h-0.6c0-0.4,0.1-0.8,0.3-1.1s0.4-0.6,0.8-0.8
		c0.3-0.2,0.7-0.3,1.1-0.3c0.7,0,1.2,0.2,1.5,0.5s0.5,0.8,0.5,1.4c0,0.3-0.1,0.7-0.3,1.1c-0.2,0.4-0.6,0.9-1.1,1.5l-2,2.2h3.7V154z"
		/>
	<path class="st0" d="M174.2,151c0,1-0.2,1.8-0.6,2.3c-0.4,0.5-0.9,0.8-1.6,0.8c-0.7,0-1.2-0.3-1.6-0.8c-0.4-0.5-0.6-1.3-0.6-2.2
		v-1.3c0-1,0.2-1.8,0.6-2.3s0.9-0.8,1.6-0.8c0.7,0,1.2,0.2,1.6,0.7c0.4,0.5,0.6,1.2,0.6,2.2V151z M173.6,149.8
		c0-0.8-0.1-1.4-0.4-1.8c-0.3-0.4-0.7-0.6-1.2-0.6c-0.5,0-0.9,0.2-1.2,0.6c-0.3,0.4-0.4,1-0.4,1.8v1.4c0,0.8,0.1,1.4,0.4,1.9
		c0.3,0.4,0.7,0.6,1.2,0.6c0.5,0,0.9-0.2,1.2-0.6s0.4-1,0.4-1.8V149.8z"/>
</g>
<g class="st2">
	<path class="st0" d="M218.5,154h-0.6v-6.4l-1.9,0.7v-0.5l2.4-0.9h0.1V154z"/>
	<path class="st0" d="M221.7,150.4l0.3-3.5h3.6v0.5h-3.1l-0.2,2.4c0.4-0.3,0.8-0.4,1.3-0.4c0.6,0,1.2,0.2,1.5,0.6s0.6,1,0.6,1.7
		c0,0.7-0.2,1.3-0.6,1.7s-0.9,0.6-1.6,0.6c-0.6,0-1.1-0.2-1.5-0.5c-0.4-0.3-0.6-0.8-0.7-1.5h0.6c0.1,0.5,0.2,0.9,0.5,1.1
		c0.3,0.2,0.6,0.4,1.1,0.4c0.5,0,0.9-0.2,1.1-0.5s0.4-0.8,0.4-1.4c0-0.5-0.1-0.9-0.4-1.3c-0.3-0.3-0.7-0.5-1.2-0.5
		c-0.3,0-0.5,0-0.7,0.1c-0.2,0.1-0.4,0.2-0.6,0.4L221.7,150.4z"/>
	<path class="st0" d="M226.8,153.6c0-0.1,0-0.2,0.1-0.3c0.1-0.1,0.2-0.1,0.3-0.1c0.1,0,0.2,0,0.3,0.1c0.1,0.1,0.1,0.2,0.1,0.3
		s0,0.2-0.1,0.3c-0.1,0.1-0.2,0.1-0.3,0.1c-0.1,0-0.2,0-0.3-0.1C226.9,153.9,226.8,153.8,226.8,153.6z M226.8,149.1
		c0-0.1,0-0.2,0.1-0.3c0.1-0.1,0.2-0.1,0.3-0.1c0.1,0,0.2,0,0.3,0.1c0.1,0.1,0.1,0.2,0.1,0.3s0,0.2-0.1,0.3
		c-0.1,0.1-0.2,0.1-0.3,0.1c-0.1,0-0.2,0-0.3-0.1C226.9,149.3,226.8,149.3,226.8,149.1z"/>
	<path class="st0" d="M232.6,151.7h1.1v0.5h-1.1v1.8H232v-1.8h-3.3v-0.3l3.3-5h0.6V151.7z M229.3,151.7h2.6v-4.1l-0.3,0.4
		L229.3,151.7z"/>
	<path class="st0" d="M238.8,151c0,1-0.2,1.8-0.6,2.3c-0.4,0.5-0.9,0.8-1.6,0.8c-0.7,0-1.2-0.3-1.6-0.8c-0.4-0.5-0.6-1.3-0.6-2.2
		v-1.3c0-1,0.2-1.8,0.6-2.3s0.9-0.8,1.6-0.8c0.7,0,1.2,0.2,1.6,0.7c0.4,0.5,0.6,1.2,0.6,2.2V151z M238.2,149.8
		c0-0.8-0.1-1.4-0.4-1.8c-0.3-0.4-0.7-0.6-1.2-0.6c-0.5,0-0.9,0.2-1.2,0.6c-0.3,0.4-0.4,1-0.4,1.8v1.4c0,0.8,0.1,1.4,0.4,1.9
		c0.3,0.4,0.7,0.6,1.2,0.6c0.5,0,0.9-0.2,1.2-0.6s0.4-1,0.4-1.8V149.8z"/>
</g>
<g class="st2">
	<path class="st0" d="M282.3,154h-0.6v-6.4l-1.9,0.7v-0.5l2.4-0.9h0.1V154z"/>
	<path class="st0" d="M288.5,146.8v0.5h-0.1c-0.8,0-1.5,0.2-2,0.8c-0.5,0.5-0.8,1.2-0.8,2.1c0.2-0.3,0.4-0.5,0.7-0.6
		c0.3-0.1,0.6-0.2,1-0.2c0.6,0,1.1,0.2,1.5,0.6c0.4,0.4,0.6,1,0.6,1.7c0,0.5-0.1,0.9-0.3,1.2c-0.2,0.4-0.4,0.7-0.7,0.9
		c-0.3,0.2-0.7,0.3-1.1,0.3c-0.7,0-1.2-0.2-1.7-0.7c-0.4-0.5-0.6-1.1-0.6-1.9v-0.6c0-1.3,0.3-2.3,0.9-3c0.6-0.7,1.4-1.1,2.5-1.1
		H288.5z M287.3,149.8c-0.4,0-0.7,0.1-1,0.3c-0.3,0.2-0.5,0.5-0.6,0.8v0.5c0,0.6,0.2,1.1,0.5,1.5c0.3,0.4,0.7,0.6,1.2,0.6
		c0.5,0,0.8-0.2,1.1-0.5c0.3-0.4,0.4-0.8,0.4-1.4c0-0.6-0.1-1-0.4-1.3C288.2,150,287.8,149.8,287.3,149.8z"/>
	<path class="st0" d="M290.6,153.6c0-0.1,0-0.2,0.1-0.3c0.1-0.1,0.2-0.1,0.3-0.1c0.1,0,0.2,0,0.3,0.1c0.1,0.1,0.1,0.2,0.1,0.3
		s0,0.2-0.1,0.3c-0.1,0.1-0.2,0.1-0.3,0.1c-0.1,0-0.2,0-0.3-0.1C290.6,153.9,290.6,153.8,290.6,153.6z M290.6,149.1
		c0-0.1,0-0.2,0.1-0.3c0.1-0.1,0.2-0.1,0.3-0.1c0.1,0,0.2,0,0.3,0.1c0.1,0.1,0.1,0.2,0.1,0.3s0,0.2-0.1,0.3
		c-0.1,0.1-0.2,0.1-0.3,0.1c-0.1,0-0.2,0-0.3-0.1C290.6,149.3,290.6,149.3,290.6,149.1z"/>
	<path class="st0" d="M297,151c0,1-0.2,1.8-0.6,2.3c-0.4,0.5-0.9,0.8-1.6,0.8c-0.7,0-1.2-0.3-1.6-0.8c-0.4-0.5-0.6-1.3-0.6-2.2v-1.3
		c0-1,0.2-1.8,0.6-2.3s0.9-0.8,1.6-0.8c0.7,0,1.2,0.2,1.6,0.7c0.4,0.5,0.6,1.2,0.6,2.2V151z M296.4,149.8c0-0.8-0.1-1.4-0.4-1.8
		c-0.3-0.4-0.7-0.6-1.2-0.6c-0.5,0-0.9,0.2-1.2,0.6c-0.3,0.4-0.4,1-0.4,1.8v1.4c0,0.8,0.1,1.4,0.4,1.9c0.3,0.4,0.7,0.6,1.2,0.6
		c0.5,0,0.9-0.2,1.2-0.6s0.4-1,0.4-1.8V149.8z"/>
	<path class="st0" d="M302.5,151c0,1-0.2,1.8-0.6,2.3c-0.4,0.5-0.9,0.8-1.6,0.8c-0.7,0-1.2-0.3-1.6-0.8c-0.4-0.5-0.6-1.3-0.6-2.2
		v-1.3c0-1,0.2-1.8,0.6-2.3s0.9-0.8,1.6-0.8c0.7,0,1.2,0.2,1.6,0.7c0.4,0.5,0.6,1.2,0.6,2.2V151z M302,149.8c0-0.8-0.1-1.4-0.4-1.8
		c-0.3-0.4-0.7-0.6-1.2-0.6c-0.5,0-0.9,0.2-1.2,0.6c-0.3,0.4-0.4,1-0.4,1.8v1.4c0,0.8,0.1,1.4,0.4,1.9c0.3,0.4,0.7,0.6,1.2,0.6
		c0.5,0,0.9-0.2,1.2-0.6s0.4-1,0.4-1.8V149.8z"/>
</g>
<linearGradient id="Path_41_1_" gradientUnits="userSpaceOnUse" x1="-525.7334" y1="470.7374" x2="-526.5734" y2="470.7374" gradientTransform="matrix(217.9988 0 0 -77.8724 114865.3516 36753.9258)">
	<stop  offset="0" style="stop-color:#F50945"/>
	<stop  offset="1" style="stop-color:#011627"/>
</linearGradient>
<path id="Path_41" class="st3" d="M73,135.4c0,0,30.4-7.8,56.4-25.2c30.7-20.6,59.8-51.5,87.4-52.6c50.5-2,74.2,77.8,74.2,77.8H73z"
	/>
<path id="Path_64" class="st4" d="M0.2,135.5h306.2"/>
<line id="Line_45" class="st4" x1="96.8" y1="40.5" x2="96.8" y2="135.5"/>
<line id="Line_47" class="st4" x1="29.5" y1="135.5" x2="29.5" y2="140.2"/>
<line id="Line_46" class="st4" x1="162.1" y1="135.5" x2="162.1" y2="140.2"/>
<line id="Line_90" class="st4" x1="96.8" y1="135.5" x2="96.8" y2="140.2"/>
<line id="Line_42" class="st4" x1="227.3" y1="135.5" x2="227.3" y2="140.2"/>
<line id="Line_43" class="st4" x1="293.5" y1="135.5" x2="293.5" y2="140.2"/>
<line id="Line_44" class="st4" x1="293.5" y1="40.5" x2="293.5" y2="135.5"/>
<g class="st2">
	<path class="st1" d="M16,15V7.9h2.4c0.8,0,1.4,0.2,1.8,0.5s0.6,0.8,0.6,1.4c0,0.3-0.1,0.6-0.3,0.9s-0.4,0.5-0.8,0.6
		c0.4,0.1,0.7,0.3,0.9,0.6c0.2,0.3,0.3,0.6,0.3,1c0,0.7-0.2,1.2-0.6,1.5s-1,0.5-1.8,0.5H16z M17.3,10.9h1.2c0.4,0,0.7-0.1,0.9-0.3
		c0.2-0.2,0.3-0.4,0.3-0.7c0-0.4-0.1-0.6-0.3-0.8s-0.5-0.2-0.9-0.2h-1.2V10.9z M17.3,11.8V14h1.4c0.4,0,0.7-0.1,0.9-0.3
		s0.3-0.5,0.3-0.8c0-0.7-0.4-1.1-1.1-1.1H17.3z"/>
	<path class="st1" d="M22,12.3c0-0.5,0.1-1,0.3-1.4c0.2-0.4,0.5-0.7,0.9-1c0.4-0.2,0.8-0.3,1.3-0.3c0.7,0,1.3,0.2,1.7,0.7
		s0.7,1.1,0.7,1.8l0,0.3c0,0.5-0.1,1-0.3,1.4s-0.5,0.7-0.9,1s-0.8,0.3-1.3,0.3c-0.7,0-1.3-0.2-1.8-0.7C22.2,13.9,22,13.2,22,12.3
		L22,12.3z M23.2,12.4c0,0.5,0.1,1,0.3,1.3c0.2,0.3,0.5,0.5,0.9,0.5s0.7-0.2,0.9-0.5s0.3-0.8,0.3-1.4c0-0.5-0.1-1-0.3-1.3
		s-0.5-0.5-0.9-0.5c-0.4,0-0.7,0.2-0.9,0.5C23.3,11.3,23.2,11.8,23.2,12.4z"/>
	<path class="st1" d="M31.1,15c-0.1-0.1-0.1-0.3-0.1-0.5c-0.4,0.4-0.8,0.6-1.4,0.6c-0.5,0-1-0.2-1.3-0.5s-0.5-0.7-0.5-1.1
		c0-0.6,0.2-1,0.6-1.3c0.4-0.3,1-0.5,1.8-0.5h0.7v-0.3c0-0.3-0.1-0.5-0.2-0.7c-0.2-0.2-0.4-0.2-0.7-0.2c-0.3,0-0.5,0.1-0.7,0.2
		c-0.2,0.1-0.3,0.3-0.3,0.5h-1.2c0-0.3,0.1-0.6,0.3-0.8c0.2-0.3,0.5-0.5,0.8-0.6s0.7-0.2,1.1-0.2c0.6,0,1.1,0.2,1.5,0.5
		c0.4,0.3,0.6,0.7,0.6,1.3v2.4c0,0.5,0.1,0.9,0.2,1.1V15H31.1z M29.8,14.1c0.2,0,0.5-0.1,0.7-0.2s0.4-0.3,0.5-0.5v-1h-0.6
		c-0.4,0-0.8,0.1-1,0.2s-0.3,0.4-0.3,0.6c0,0.2,0.1,0.4,0.2,0.5C29.3,14.1,29.5,14.1,29.8,14.1z"/>
	<path class="st1" d="M36.1,10.8c-0.2,0-0.3,0-0.5,0c-0.5,0-0.9,0.2-1.1,0.6V15h-1.2V9.7h1.1l0,0.6c0.3-0.5,0.7-0.7,1.2-0.7
		c0.2,0,0.3,0,0.4,0.1L36.1,10.8z"/>
	<path class="st1" d="M36.5,12.3c0-0.8,0.2-1.5,0.6-2c0.4-0.5,0.9-0.7,1.5-0.7c0.6,0,1,0.2,1.4,0.6V7.5h1.2V15h-1.1L40,14.5
		c-0.4,0.4-0.8,0.6-1.4,0.6c-0.6,0-1.1-0.2-1.5-0.7S36.5,13.2,36.5,12.3z M37.7,12.4c0,0.5,0.1,1,0.3,1.3c0.2,0.3,0.5,0.5,0.9,0.5
		c0.5,0,0.8-0.2,1.1-0.6v-2.3c-0.2-0.4-0.6-0.6-1.1-0.6c-0.4,0-0.7,0.2-0.9,0.5C37.8,11.4,37.7,11.8,37.7,12.4z"/>
	<path class="st1" d="M42.4,8.3c0-0.2,0.1-0.3,0.2-0.5s0.3-0.2,0.5-0.2s0.4,0.1,0.5,0.2s0.2,0.3,0.2,0.5c0,0.2-0.1,0.3-0.2,0.4
		C43.5,8.9,43.3,9,43.1,9s-0.4-0.1-0.5-0.2C42.5,8.7,42.4,8.5,42.4,8.3z M43.7,15h-1.2V9.7h1.2V15z"/>
	<path class="st1" d="M46.1,9.7l0,0.6c0.4-0.5,0.9-0.7,1.5-0.7c1.1,0,1.7,0.6,1.7,1.9V15h-1.2v-3.4c0-0.3-0.1-0.6-0.2-0.7
		c-0.1-0.2-0.4-0.2-0.7-0.2c-0.5,0-0.8,0.2-1.1,0.6V15h-1.2V9.7H46.1z"/>
	<path class="st1" d="M50.3,12.3c0-0.8,0.2-1.5,0.6-2c0.4-0.5,0.9-0.7,1.5-0.7c0.6,0,1.1,0.2,1.4,0.6l0.1-0.5H55v5.1
		c0,0.7-0.2,1.2-0.6,1.6s-1,0.6-1.7,0.6c-0.4,0-0.8-0.1-1.1-0.2c-0.4-0.2-0.7-0.4-0.8-0.6l0.6-0.7c0.4,0.4,0.8,0.6,1.3,0.6
		c0.4,0,0.7-0.1,0.9-0.3c0.2-0.2,0.3-0.5,0.3-0.9v-0.4c-0.3,0.4-0.8,0.6-1.4,0.6c-0.6,0-1.1-0.2-1.5-0.7S50.3,13.2,50.3,12.3z
		 M51.5,12.4c0,0.5,0.1,0.9,0.3,1.3c0.2,0.3,0.5,0.5,0.9,0.5c0.5,0,0.8-0.2,1.1-0.6v-2.3c-0.2-0.4-0.6-0.6-1.1-0.6
		c-0.4,0-0.7,0.2-0.9,0.5S51.5,11.8,51.5,12.4z"/>
	<path class="st1" d="M64.5,11.6c0,0.7-0.1,1.3-0.4,1.8c-0.2,0.5-0.6,0.9-1,1.2c-0.4,0.3-1,0.4-1.5,0.4c-0.6,0-1.1-0.1-1.5-0.4
		c-0.5-0.3-0.8-0.7-1-1.2s-0.4-1.1-0.4-1.8v-0.4c0-0.7,0.1-1.3,0.4-1.8s0.6-0.9,1-1.2c0.4-0.3,1-0.4,1.5-0.4s1.1,0.1,1.5,0.4
		c0.4,0.3,0.8,0.7,1,1.2c0.2,0.5,0.4,1.1,0.4,1.8V11.6z M63.2,11.3c0-0.8-0.1-1.4-0.4-1.8s-0.7-0.6-1.3-0.6c-0.5,0-1,0.2-1.3,0.6
		c-0.3,0.4-0.5,1-0.5,1.8v0.4c0,0.8,0.2,1.4,0.5,1.8s0.7,0.6,1.3,0.6c0.5,0,1-0.2,1.3-0.6s0.4-1,0.4-1.8V11.3z"/>
	<path class="st1" d="M70.2,12.4c0,0.8-0.2,1.5-0.6,2c-0.4,0.5-0.9,0.7-1.5,0.7c-0.6,0-1-0.2-1.4-0.6V17h-1.2V9.7h1.1l0,0.5
		c0.3-0.4,0.8-0.6,1.4-0.6c0.6,0,1.1,0.2,1.5,0.7C70,10.8,70.2,11.5,70.2,12.4L70.2,12.4z M69,12.3c0-0.5-0.1-0.9-0.3-1.3
		s-0.5-0.5-0.9-0.5c-0.5,0-0.8,0.2-1,0.6v2.3c0.2,0.4,0.6,0.6,1.1,0.6c0.4,0,0.7-0.2,0.9-0.5C68.9,13.4,69,12.9,69,12.3z"/>
	<path class="st1" d="M73.5,15.1c-0.8,0-1.4-0.2-1.8-0.7c-0.5-0.5-0.7-1.1-0.7-1.9v-0.1c0-0.5,0.1-1,0.3-1.4c0.2-0.4,0.5-0.7,0.9-1
		s0.8-0.3,1.2-0.3c0.7,0,1.3,0.2,1.7,0.7s0.6,1.1,0.6,1.9v0.5h-3.5c0,0.4,0.2,0.8,0.4,1s0.6,0.4,1,0.4c0.5,0,1-0.2,1.3-0.7l0.6,0.6
		c-0.2,0.3-0.5,0.6-0.8,0.7C74.4,15,74,15.1,73.5,15.1z M73.4,10.6c-0.3,0-0.6,0.1-0.8,0.3s-0.3,0.5-0.4,1h2.3v-0.1
		c0-0.4-0.1-0.7-0.3-0.9C74,10.7,73.7,10.6,73.4,10.6z"/>
	<path class="st1" d="M77.7,9.7l0,0.6c0.4-0.5,0.9-0.7,1.5-0.7c1.1,0,1.7,0.6,1.7,1.9V15h-1.2v-3.4c0-0.3-0.1-0.6-0.2-0.7
		c-0.1-0.2-0.4-0.2-0.7-0.2c-0.5,0-0.8,0.2-1.1,0.6V15h-1.2V9.7H77.7z"/>
	<path class="st1" d="M85.1,13.6c0-0.2-0.1-0.4-0.3-0.5s-0.5-0.2-0.9-0.3s-0.7-0.2-1-0.3c-0.6-0.3-0.9-0.7-0.9-1.2
		c0-0.5,0.2-0.8,0.6-1.1s0.9-0.5,1.5-0.5c0.6,0,1.1,0.2,1.5,0.5s0.6,0.7,0.6,1.2H85c0-0.2-0.1-0.4-0.3-0.6c-0.2-0.2-0.4-0.2-0.7-0.2
		c-0.3,0-0.5,0.1-0.6,0.2s-0.2,0.3-0.2,0.5c0,0.2,0.1,0.3,0.2,0.4s0.5,0.2,0.9,0.3c0.5,0.1,0.8,0.2,1.1,0.4c0.3,0.1,0.5,0.3,0.6,0.5
		s0.2,0.4,0.2,0.7c0,0.5-0.2,0.9-0.6,1.2c-0.4,0.3-0.9,0.4-1.5,0.4c-0.4,0-0.8-0.1-1.2-0.2s-0.6-0.4-0.8-0.6s-0.3-0.6-0.3-0.9H83
		c0,0.3,0.1,0.5,0.3,0.6c0.2,0.2,0.5,0.2,0.8,0.2c0.3,0,0.6-0.1,0.7-0.2C85,13.9,85.1,13.8,85.1,13.6z"/>
</g>
<g class="st2">
	<path class="st0" d="M211.8,16V8.9h2.5c0.9,0,1.5,0.2,2,0.5c0.4,0.3,0.7,0.8,0.7,1.5c0,0.3-0.1,0.7-0.3,0.9
		c-0.2,0.3-0.4,0.5-0.7,0.6c0.4,0.1,0.7,0.3,0.9,0.6s0.3,0.6,0.3,1c0,0.7-0.2,1.2-0.7,1.6c-0.4,0.4-1.1,0.5-1.9,0.5H211.8z
		 M213.3,11.9h1.1c0.7,0,1.1-0.3,1.1-0.9c0-0.3-0.1-0.6-0.3-0.7c-0.2-0.1-0.5-0.2-0.9-0.2h-1V11.9z M213.3,12.9v1.9h1.3
		c0.3,0,0.6-0.1,0.8-0.2c0.2-0.2,0.3-0.4,0.3-0.7c0-0.7-0.3-1-1-1H213.3z"/>
	<path class="st0" d="M217.9,13.3c0-0.5,0.1-1,0.3-1.4c0.2-0.4,0.5-0.7,0.9-1c0.4-0.2,0.8-0.3,1.3-0.3c0.7,0,1.3,0.2,1.7,0.7
		c0.5,0.4,0.7,1,0.8,1.8l0,0.4c0,0.8-0.2,1.5-0.7,2c-0.5,0.5-1.1,0.7-1.8,0.7s-1.4-0.2-1.8-0.7S217.9,14.2,217.9,13.3L217.9,13.3z
		 M219.3,13.4c0,0.5,0.1,0.9,0.3,1.2c0.2,0.3,0.5,0.4,0.8,0.4c0.3,0,0.6-0.1,0.8-0.4c0.2-0.3,0.3-0.7,0.3-1.3c0-0.5-0.1-0.9-0.3-1.1
		c-0.2-0.3-0.5-0.4-0.8-0.4c-0.3,0-0.6,0.1-0.8,0.4C219.4,12.4,219.3,12.8,219.3,13.4z"/>
	<path class="st0" d="M226.9,16c-0.1-0.1-0.1-0.3-0.1-0.5c-0.3,0.4-0.8,0.6-1.3,0.6c-0.5,0-0.9-0.1-1.3-0.4
		c-0.3-0.3-0.5-0.7-0.5-1.1c0-0.6,0.2-1,0.6-1.3s1-0.5,1.8-0.5h0.6v-0.3c0-0.2-0.1-0.4-0.2-0.6c-0.1-0.1-0.3-0.2-0.6-0.2
		c-0.2,0-0.4,0.1-0.6,0.2c-0.1,0.1-0.2,0.3-0.2,0.5h-1.4c0-0.3,0.1-0.6,0.3-0.8c0.2-0.3,0.5-0.5,0.8-0.6c0.3-0.1,0.7-0.2,1.2-0.2
		c0.7,0,1.2,0.2,1.6,0.5c0.4,0.3,0.6,0.8,0.6,1.4v2.3c0,0.5,0.1,0.9,0.2,1.1V16H226.9z M225.7,15c0.2,0,0.4,0,0.6-0.1
		c0.2-0.1,0.3-0.2,0.4-0.4v-0.9h-0.5c-0.7,0-1.1,0.2-1.1,0.7l0,0.1c0,0.2,0.1,0.3,0.2,0.4C225.3,15,225.5,15,225.7,15z"/>
	<path class="st0" d="M232.1,12c-0.2,0-0.4,0-0.5,0c-0.5,0-0.9,0.2-1,0.5V16h-1.4v-5.3h1.3l0,0.6c0.3-0.5,0.7-0.7,1.2-0.7
		c0.2,0,0.3,0,0.4,0.1L232.1,12z"/>
	<path class="st0" d="M232.5,13.3c0-0.8,0.2-1.5,0.6-2c0.4-0.5,0.9-0.7,1.5-0.7c0.5,0,0.9,0.2,1.3,0.6V8.5h1.4V16H236l-0.1-0.6
		c-0.4,0.4-0.8,0.7-1.4,0.7c-0.6,0-1.1-0.2-1.5-0.7C232.7,14.9,232.5,14.2,232.5,13.3z M233.9,13.4c0,0.5,0.1,0.9,0.3,1.1
		c0.2,0.3,0.4,0.4,0.8,0.4c0.4,0,0.7-0.2,0.9-0.6v-2.1c-0.2-0.4-0.5-0.6-0.9-0.6C234.2,11.8,233.9,12.3,233.9,13.4z"/>
	<path class="st0" d="M238.3,9.3c0-0.2,0.1-0.4,0.2-0.5s0.3-0.2,0.6-0.2c0.2,0,0.4,0.1,0.6,0.2c0.1,0.1,0.2,0.3,0.2,0.5
		c0,0.2-0.1,0.4-0.2,0.5c-0.1,0.1-0.3,0.2-0.6,0.2c-0.2,0-0.4-0.1-0.6-0.2C238.4,9.7,238.3,9.6,238.3,9.3z M239.8,16h-1.4v-5.3h1.4
		V16z"/>
	<path class="st0" d="M242.3,10.7l0,0.6c0.4-0.5,0.9-0.7,1.5-0.7c0.6,0,1,0.2,1.2,0.5s0.4,0.8,0.4,1.5V16h-1.4v-3.4
		c0-0.3-0.1-0.5-0.2-0.7c-0.1-0.1-0.3-0.2-0.6-0.2c-0.4,0-0.7,0.2-0.9,0.5V16H241v-5.3H242.3z"/>
	<path class="st0" d="M246.4,13.3c0-0.8,0.2-1.5,0.6-2s0.9-0.7,1.6-0.7c0.6,0,1,0.2,1.4,0.6l0.1-0.5h1.3v5.1c0,0.5-0.1,0.9-0.3,1.2
		s-0.5,0.6-0.9,0.8s-0.8,0.3-1.3,0.3c-0.4,0-0.8-0.1-1.1-0.2c-0.4-0.2-0.6-0.4-0.8-0.6l0.6-0.9c0.4,0.4,0.8,0.6,1.3,0.6
		c0.4,0,0.7-0.1,0.9-0.3c0.2-0.2,0.3-0.5,0.3-0.9v-0.3c-0.3,0.4-0.8,0.6-1.3,0.6c-0.6,0-1.1-0.2-1.5-0.7
		C246.6,14.9,246.4,14.2,246.4,13.3L246.4,13.3z M247.8,13.4c0,0.5,0.1,0.9,0.3,1.1c0.2,0.3,0.5,0.4,0.8,0.4c0.4,0,0.7-0.2,0.9-0.5
		v-2.2c-0.2-0.3-0.5-0.5-0.9-0.5c-0.3,0-0.6,0.1-0.8,0.4C247.9,12.5,247.8,12.9,247.8,13.4z"/>
	<path class="st0" d="M260.5,13.6c-0.1,0.8-0.3,1.4-0.8,1.8c-0.5,0.4-1.2,0.7-2,0.7c-0.9,0-1.6-0.3-2.2-0.9
		c-0.5-0.6-0.8-1.5-0.8-2.5v-0.4c0-0.7,0.1-1.3,0.4-1.8c0.2-0.5,0.6-0.9,1-1.2c0.4-0.3,1-0.4,1.6-0.4c0.8,0,1.5,0.2,2,0.7
		c0.5,0.4,0.8,1.1,0.9,1.9H259c0-0.5-0.2-0.8-0.4-1c-0.2-0.2-0.6-0.3-1-0.3c-0.5,0-0.9,0.2-1.1,0.5c-0.2,0.3-0.4,0.9-0.4,1.6v0.5
		c0,0.8,0.1,1.3,0.3,1.7c0.2,0.4,0.6,0.5,1.1,0.5c0.5,0,0.8-0.1,1-0.3c0.2-0.2,0.4-0.5,0.4-1H260.5z"/>
	<path class="st0" d="M262.8,16h-1.4V8.5h1.4V16z"/>
	<path class="st0" d="M263.8,13.3c0-0.5,0.1-1,0.3-1.4c0.2-0.4,0.5-0.7,0.9-1c0.4-0.2,0.8-0.3,1.3-0.3c0.7,0,1.3,0.2,1.7,0.7
		c0.5,0.4,0.7,1,0.8,1.8l0,0.4c0,0.8-0.2,1.5-0.7,2c-0.5,0.5-1.1,0.7-1.8,0.7s-1.4-0.2-1.8-0.7S263.8,14.2,263.8,13.3L263.8,13.3z
		 M265.2,13.4c0,0.5,0.1,0.9,0.3,1.2c0.2,0.3,0.5,0.4,0.8,0.4c0.3,0,0.6-0.1,0.8-0.4c0.2-0.3,0.3-0.7,0.3-1.3c0-0.5-0.1-0.9-0.3-1.1
		c-0.2-0.3-0.5-0.4-0.8-0.4c-0.3,0-0.6,0.1-0.8,0.4C265.3,12.4,265.2,12.8,265.2,13.4z"/>
	<path class="st0" d="M272.5,14.5c0-0.2-0.1-0.3-0.3-0.4c-0.2-0.1-0.4-0.2-0.8-0.3c-1.3-0.3-1.9-0.8-1.9-1.6c0-0.5,0.2-0.9,0.6-1.2
		c0.4-0.3,0.9-0.5,1.5-0.5c0.7,0,1.2,0.2,1.6,0.5c0.4,0.3,0.6,0.7,0.6,1.2h-1.4c0-0.2-0.1-0.4-0.2-0.5c-0.1-0.1-0.3-0.2-0.6-0.2
		c-0.2,0-0.4,0.1-0.6,0.2c-0.1,0.1-0.2,0.2-0.2,0.4c0,0.2,0.1,0.3,0.2,0.4c0.1,0.1,0.4,0.2,0.7,0.2c0.4,0.1,0.6,0.1,0.9,0.2
		c0.7,0.3,1.1,0.7,1.1,1.4c0,0.5-0.2,0.9-0.6,1.2c-0.4,0.3-0.9,0.4-1.6,0.4c-0.4,0-0.8-0.1-1.2-0.2c-0.3-0.2-0.6-0.4-0.8-0.7
		c-0.2-0.3-0.3-0.6-0.3-0.9h1.3c0,0.3,0.1,0.4,0.3,0.6c0.2,0.1,0.4,0.2,0.7,0.2c0.3,0,0.5-0.1,0.6-0.2
		C272.4,14.8,272.5,14.7,272.5,14.5z"/>
	<path class="st0" d="M277.2,16.1c-0.8,0-1.4-0.2-1.9-0.7c-0.5-0.5-0.7-1.1-0.7-1.9v-0.1c0-0.5,0.1-1,0.3-1.4c0.2-0.4,0.5-0.7,0.9-1
		c0.4-0.2,0.8-0.3,1.3-0.3c0.7,0,1.3,0.2,1.7,0.7s0.6,1.1,0.6,1.9v0.6H276c0,0.3,0.2,0.6,0.4,0.8s0.5,0.3,0.9,0.3
		c0.5,0,1-0.2,1.3-0.6l0.7,0.8c-0.2,0.3-0.5,0.5-0.9,0.7C278.1,16,277.7,16.1,277.2,16.1z M277.1,11.8c-0.3,0-0.5,0.1-0.7,0.3
		c-0.2,0.2-0.3,0.5-0.3,0.8h2v-0.1c0-0.3-0.1-0.6-0.3-0.7C277.6,11.8,277.4,11.8,277.1,11.8z"/>
	<path class="st0" d="M283,14.5c0-0.2-0.1-0.3-0.3-0.4c-0.2-0.1-0.4-0.2-0.8-0.3c-1.3-0.3-1.9-0.8-1.9-1.6c0-0.5,0.2-0.9,0.6-1.2
		c0.4-0.3,0.9-0.5,1.5-0.5c0.7,0,1.2,0.2,1.6,0.5c0.4,0.3,0.6,0.7,0.6,1.2H283c0-0.2-0.1-0.4-0.2-0.5c-0.1-0.1-0.3-0.2-0.6-0.2
		c-0.2,0-0.4,0.1-0.6,0.2c-0.1,0.1-0.2,0.2-0.2,0.4c0,0.2,0.1,0.3,0.2,0.4c0.1,0.1,0.4,0.2,0.7,0.2c0.4,0.1,0.6,0.1,0.9,0.2
		c0.7,0.3,1.1,0.7,1.1,1.4c0,0.5-0.2,0.9-0.6,1.2c-0.4,0.3-0.9,0.4-1.6,0.4c-0.4,0-0.8-0.1-1.2-0.2c-0.3-0.2-0.6-0.4-0.8-0.7
		c-0.2-0.3-0.3-0.6-0.3-0.9h1.3c0,0.3,0.1,0.4,0.3,0.6c0.2,0.1,0.4,0.2,0.7,0.2c0.3,0,0.5-0.1,0.6-0.2C283,14.8,283,14.7,283,14.5z"
		/>
</g>
</svg>
